<?xml version="1.0" encoding="utf-8"?>
<!-- Generator: Adobe Illustrator 27.5.0, SVG Export Plug-In . SVG Version: 6.00 Build 0)  -->
<svg version="1.1" id="layer" xmlns="http://www.w3.org/2000/svg" xmlns:xlink="http://www.w3.org/1999/xlink" x="0px" y="0px"
	 viewBox="0 0 603.5 131.9" style="enable-background:new 0 0 603.5 131.9;" xml:space="preserve">
<style type="text/css">
	.st0{fill-rule:evenodd;clip-rule:evenodd;fill:#F89522;}
	.st1{fill-rule:evenodd;clip-rule:evenodd;fill:#A4CD39;}
	.st2{fill-rule:evenodd;clip-rule:evenodd;fill:#3DC5F2;}
	.st3{fill:#A4CD39;}
	.st4{fill:#F89522;}
</style>
<path class="st0" d="M99.6,25c-5.5-4.8-11.1-6.2-18.4-6.2c-8.6,0-20,3.8-20,14.8c0,10.8,10.7,14,19.6,14.7c6.7,0.4,9.4,1.7,9.4,5
	c0,3.5-4.1,5.8-8.6,5.7c-5.3-0.1-13-2.9-16.3-6.6l-5.8,8.4c6.9,7.2,14.4,8.5,21.9,8.5c13.5,0,20.4-7.2,20.4-15.6
	c0-12.6-11.3-14.6-20.3-15.2c-6.1-0.4-8.8-2.1-8.8-5.2c0-3,3.1-4.7,8.6-4.7c4.5,0,8.4,1.1,11.7,4.2L99.6,25z"/>
<path class="st0" d="M114.9,8v12.2h-8.8v10.1h8.8v20.5c0,11.8,6.7,17.7,17,17.3c3.6-0.1,6.3-0.7,9.7-2l-3.3-10
	c-1.7,0.9-3.8,1.4-5.7,1.4c-3.7,0-6.1-2.2-6.1-6.7V30.3h13.2V20.2h-13.1V6.7L114.9,8z"/>
<path class="st0" d="M169.9,29.5c18.4,0,18.4,28.7,0,28.7c-7.8,0-14-5.4-14-14.4C155.8,34.7,162.1,29.5,169.9,29.5 M183.9,26.7
	c-2.7-4.7-8.7-7.7-15.1-7.7c-13.8-0.1-24.7,8.5-24.7,24.8c0,16.6,10.4,25.3,24.4,25.2c5.3-0.1,12.7-2.8,15.4-8.4l0.6,6.9h11.1V20.1
	h-11.2L183.9,26.7z"/>
<path class="st0" d="M203,20.1v47.4h11.7v-25c0-8.7,5.7-12,11.8-12c3.8,0,6.1,1.1,8.5,3.1l5.3-10.2c-2.6-2.6-7.3-4.5-12.2-4.5
	c-4.8,0-9.7,0.9-13.4,6.7l-0.9-5.5H203z"/>
<path class="st0" d="M254.7,8v12.2h-8.8v10.1h8.8v20.5c0,11.8,6.7,17.7,17,17.3c3.6-0.1,6.3-0.7,9.7-2l-3.3-10
	c-1.7,0.9-3.8,1.4-5.7,1.4c-3.7,0-6.1-2.2-6.1-6.7V30.3h13.2V20.2h-13.1V6.7L254.7,8z"/>
<path class="st0" d="M288.2,20.1V45c0,14.7,8.3,23.3,19.6,23.3c6.6,0,11.1-2.3,16.1-7.1l0.8,6.3h10.5V20.1h-11.6v24.2
	c0,7.3-4.9,13.3-12.1,13.3c-7.5,0-11.4-5.5-11.4-12.7V20.1L288.2,20.1L288.2,20.1z"/>
<path class="st0" d="M353.7,87.3V61.9c3.4,5.2,10.8,6.7,15.8,6.7c15.2,0,23.9-11,23.9-24.8c0-13.9-9.7-24.8-24.3-24.8
	c-5.4,0-11.7,2.3-15.4,7.6l-0.8-6.5h-11v67.2L353.7,87.3L353.7,87.3z M368.2,57.3c-8,0-13.5-6-13.5-13.5c0-7.4,5-13.5,13.5-13.5
	s13.5,6.1,13.5,13.5C381.6,51.3,376.1,57.3,368.2,57.3"/>
<path class="st0" d="M398.7,6.8c0,9.1,13.8,9.1,13.8,0C412.6-2.3,398.7-2.3,398.7,6.8 M411.5,67.5h-11.7V19.9h11.7V67.5z"/>
<path class="st0" d="M465.6,67.5V42.6c0-14.9-8.9-23.3-20.1-23.3c-6,0-10.8,2.4-15.6,7.1l-0.8-6.4h-10.5v47.5h11.6V43.3
	c0-7.2,4.9-13.3,12.1-13.3c7.5,0,11.4,5.5,11.4,12.7v24.8L465.6,67.5L465.6,67.5z"/>
<path class="st0" d="M511.3,0.3v26.2c-2.8-4.9-10.6-7.6-15.6-7.6c-13.8,0-24.1,8.5-24.1,24.8c0,15.6,10.5,24.8,24.4,24.8
	c5.8,0,11.6-1.9,15.3-7.6l0.8,6.5h11V0.2h-11.8V0.3z M496.8,29.9c7.4,0,13.7,5.6,13.7,13.8c0,8.5-6.3,13.9-13.7,13.9
	c-7.5,0-13.5-5.7-13.5-13.9C483.4,35.2,489.3,29.9,496.8,29.9"/>
<path class="st1" d="M531.7,6.8c0,9.1,13.8,9.1,13.8,0S531.7-2.3,531.7,6.8"/>
<rect x="532.8" y="19.9" class="st2" width="11.7" height="47.6"/>
<path class="st0" d="M576.5,29.5c18.4,0,18.4,28.7,0,28.7c-7.8,0-14-5.4-14-14.4C562.5,34.7,568.8,29.5,576.5,29.5 M590.6,26.7
	c-2.7-4.7-8.7-7.7-15.1-7.7c-13.8-0.1-24.7,8.5-24.7,24.8c0,16.6,10.4,25.3,24.4,25.2c5.3-0.1,12.7-2.8,15.4-8.4l0.6,6.9h11V20.1
	H591L590.6,26.7z"/>
<rect x="488.6" y="74.8" class="st3" width="56" height="11.5"/>
<rect x="488.4" y="74.9" class="st3" width="11.4" height="56.1"/>
<rect x="444" y="119.5" class="st3" width="55.8" height="11.5"/>
<path class="st4" d="M30.1,12.2l-3,11.9h8.7l3-11.9h10.6l-2.9,12h5.7v9.2h-8l-3.7,14.5h6.3v9.3h-8.4L35.8,68H25l2.6-10.8h-8.8
	L16.2,68H5.6l2.6-10.8h-6v-9.3h8.4l3.7-14.6H7.7v-9.1h8.8l2.9-11.9h10.7V12.2z M24.4,32.7l-4,15.8h10l4-15.8H24.4z"/>
</svg>
