<svg xmlns="http://www.w3.org/2000/svg" xmlns:xlink="http://www.w3.org/1999/xlink" width="899.843" height="826.245" viewBox="0 0 899.843 826.245">
  <defs>
    <filter id="Vector_1580">
      <feOffset dy="3" input="SourceAlpha"/>
      <feGaussianBlur stdDeviation="3" result="blur"/>
      <feFlood flood-opacity="0.161" result="color"/>
      <feComposite operator="out" in="SourceGraphic" in2="blur"/>
      <feComposite operator="in" in="color"/>
      <feComposite operator="in" in2="SourceGraphic"/>
    </filter>
  </defs>
  <g data-type="innerShadowGroup">
    <path id="Vector_1580-2" data-name="Vector 1580" d="M-.57-64.476C-16.237-143.142,84.552-260.5,180.152-294.5c119.5-42.5,195-55.5,218.5-138.5s-.5-147,69-215,195.724,30,324-125c77.793-94,49.018-51.741,106-117.721V-64.476Z" transform="translate(897.653 -64.476) rotate(180)" fill="#8ed0de" opacity="0.1"/>
    <g transform="matrix(1, 0, 0, 1, 0, 0)" filter="url(#Vector_1580)">
      <path id="Vector_1580-3" data-name="Vector 1580" d="M-.57-64.476C-16.237-143.142,84.552-260.5,180.152-294.5c119.5-42.5,195-55.5,218.5-138.5s-.5-147,69-215,195.724,30,324-125c77.793-94,49.018-51.741,106-117.721V-64.476Z" transform="translate(897.65 -64.48) rotate(180)" fill="#fff" opacity="0.1"/>
    </g>
  </g>
</svg>
