<svg xmlns="http://www.w3.org/2000/svg" width="28.587" height="38.486" viewBox="0 0 28.587 38.486">
  <g id="money_3_" data-name="money (3)" transform="translate(0 38.486) rotate(-90)">
    <ellipse id="Ellipse_18" data-name="Ellipse 18" cx="0.601" cy="0.601" rx="0.601" ry="0.601" transform="translate(6.615 17.763)" fill="#59b46a"/>
    <path id="Path_829" data-name="Path 829" d="M6.615,0A6.615,6.615,0,1,0,13.23,6.615,6.622,6.622,0,0,0,6.615,0Z" transform="translate(12.628 11.75)" fill="#59b46a"/>
    <path id="Path_830" data-name="Path 830" d="M36.682,0H1.8A1.806,1.806,0,0,0,0,1.8V18.642a1.806,1.806,0,0,0,1.8,1.8H36.682a1.806,1.806,0,0,0,1.8-1.8V1.8A1.806,1.806,0,0,0,36.682,0ZM12.628,18.04H4.811a.6.6,0,0,1-.6-.6A1.2,1.2,0,0,0,3,16.236a.6.6,0,0,1-.6-.6V4.811a.6.6,0,0,1,.6-.6A1.2,1.2,0,0,0,4.209,3a.6.6,0,0,1,.6-.6h7.8a.615.615,0,0,1,.621.561.6.6,0,0,1-.6.641H5.5a.225.225,0,0,0-.213.155A2.417,2.417,0,0,1,3.763,5.29a.225.225,0,0,0-.155.213v9.438a.225.225,0,0,0,.155.213A2.417,2.417,0,0,1,5.29,16.683a.225.225,0,0,0,.213.155h7.1a.615.615,0,0,1,.621.561.6.6,0,0,1-.6.641ZM9.02,10.223a1.8,1.8,0,1,1-1.8-1.8A1.806,1.806,0,0,1,9.02,10.223ZM19.243,18.04a7.817,7.817,0,1,1,7.817-7.817A7.826,7.826,0,0,1,19.243,18.04ZM36.08,15.635a.6.6,0,0,1-.6.6,1.2,1.2,0,0,0-1.207,1.207.6.6,0,0,1-.6.6h-7.8a.615.615,0,0,1-.621-.561.6.6,0,0,1,.6-.641h7.124a.225.225,0,0,0,.213-.155,2.417,2.417,0,0,1,1.528-1.528.225.225,0,0,0,.155-.213V5.5a.225.225,0,0,0-.155-.213A2.417,2.417,0,0,1,33.2,3.763a.225.225,0,0,0-.213-.155h-7.1a.615.615,0,0,1-.621-.561.6.6,0,0,1,.6-.641h7.817a.6.6,0,0,1,.6.6,1.2,1.2,0,0,0,1.207,1.207.6.6,0,0,1,.6.6V15.635Zm-6.615-5.412a1.8,1.8,0,1,1,1.8,1.8A1.806,1.806,0,0,1,29.466,10.223Z" transform="translate(0 8.142)" fill="#59b46a"/>
    <ellipse id="Ellipse_19" data-name="Ellipse 19" cx="0.601" cy="0.601" rx="0.601" ry="0.601" transform="translate(30.668 17.763)" fill="#59b46a"/>
    <path id="Path_831" data-name="Path 831" d="M25.076,1.58A1.8,1.8,0,0,0,23.036.017L.065,3.3a.075.075,0,0,0,.011.15H25.14a.15.15,0,0,0,.149-.169Z" transform="translate(11.151 3.487)" fill="#59b46a"/>
    <path id="Path_832" data-name="Path 832" d="M21.291,2.479a.15.15,0,0,0,.124-.185l-.232-.928a1.8,1.8,0,0,0-2.225-1.3l-18.9,5.3a.075.075,0,0,0,.03.147Z" transform="translate(11.568)" fill="#59b46a"/>
    <path id="Icon_awesome-rupee-sign" data-name="Icon awesome-rupee-sign" d="M3.933.817A.153.153,0,0,0,4.086.664V.153A.153.153,0,0,0,3.933,0H.153A.153.153,0,0,0,0,.153V.725A.153.153,0,0,0,.153.878H1.242a.921.921,0,0,1,.778.348H.153A.153.153,0,0,0,0,1.379V1.89a.153.153,0,0,0,.153.153H2.18a.882.882,0,0,1-.955.749H.153A.153.153,0,0,0,0,2.945v.677a.153.153,0,0,0,.049.113L2.157,5.68a.153.153,0,0,0,.1.041H3.315a.153.153,0,0,0,.1-.266L1.492,3.676A1.749,1.749,0,0,0,3.258,2.043h.674a.153.153,0,0,0,.153-.153V1.379a.153.153,0,0,0-.153-.153H3.183A1.749,1.749,0,0,0,3,.817Z" transform="translate(21.978 16.321) rotate(90)" fill="#fff"/>
  </g>
</svg>
