<svg id="Group_186" data-name="Group 186" xmlns="http://www.w3.org/2000/svg" width="128.668" height="128.668" viewBox="0 0 128.668 128.668">
  <rect id="Rectangle_3" data-name="Rectangle 3" width="128.668" height="128.668" rx="16" transform="translate(0)" fill="#5ab56b"/>
  <g id="Icon_double_click_to_edit_" data-name="Icon (double click to edit)" transform="translate(39.52 39.52)">
    <g id="Vector" transform="translate(0 0)" fill="#5ab56b">
      <path d="M 46.87153244018555 48.62760162353516 L 30.32844352722168 48.62760162353516 C 29.8583927154541 48.62760162353516 29.41684341430664 48.44491195678711 29.08512306213379 48.11319351196289 C 28.75820350646973 47.78628158569336 28.57071304321289 47.33371353149414 28.57071304321289 46.87153244018555 L 28.57071304321289 27.57071304321289 C 28.57071304321289 27.10852241516113 28.75862312316895 26.65493202209473 29.08624267578125 26.32626342773438 C 29.41267204284668 26.00088310241699 29.86626243591309 25.81297302246094 30.32844352722168 25.81297302246094 L 46.87153244018555 25.81297302246094 C 47.33371353149414 25.81297302246094 47.78628158569336 26.00047302246094 48.11319351196289 26.32738304138184 C 48.44492340087891 26.65910339355469 48.62760162353516 27.10065269470215 48.62760162353516 27.57071304321289 L 48.62760162353516 46.87153244018555 C 48.62760162353516 47.34157180786133 48.4453239440918 47.78213119506836 48.11433410644531 48.11206436157227 C 47.78213119506836 48.4453239440918 47.34157180786133 48.62760162353516 46.87153244018555 48.62760162353516 Z M 19.29916191101074 48.62760162353516 L 2.756082773208618 48.62760162353516 C 2.286032676696777 48.62760162353516 1.845472693443298 48.4453239440918 1.51554274559021 48.11433410644531 C 1.182282686233521 47.78213119506836 1.00000274181366 47.34157180786133 1.00000274181366 46.87153244018555 L 1.00000274181366 35.84224319458008 C 1.00000274181366 35.3722038269043 1.182692766189575 34.9306526184082 1.514412760734558 34.59893417358398 C 1.841322660446167 34.27201461791992 2.293892621994019 34.08452224731445 2.756082773208618 34.08452224731445 L 19.29916191101074 34.08452224731445 C 19.7613525390625 34.08452224731445 20.21494293212891 34.27243423461914 20.54361343383789 34.60005187988281 C 20.86899185180664 34.92648315429688 21.0569019317627 35.38006210327148 21.0569019317627 35.84224319458008 L 21.0569019317627 46.87153244018555 C 21.0569019317627 47.33371353149414 20.8694019317627 47.78628158569336 20.5424919128418 48.11319351196289 C 20.21076202392578 48.44491195678711 19.76921272277832 48.62760162353516 19.29916191101074 48.62760162353516 Z M 19.29916191101074 26.57071304321289 L 2.756082773208618 26.57071304321289 C 2.293892621994019 26.57071304321289 1.841322660446167 26.38321304321289 1.514412760734558 26.05630302429199 C 1.182692766189575 25.72457313537598 1.00000274181366 25.28302192687988 1.00000274181366 24.81297302246094 L 1.00000274181366 2.756082773208618 C 1.00000274181366 2.286022663116455 1.182682752609253 1.844472765922546 1.514402747154236 1.512762665748596 C 1.840272665023804 1.186892747879028 2.292842626571655 1.00000274181366 2.756082773208618 1.00000274181366 L 19.29916191101074 1.00000274181366 C 19.76921272277832 1.00000274181366 20.21117210388184 1.182502746582031 20.54361343383789 1.513882756233215 C 20.86899185180664 1.840312719345093 21.0569019317627 2.293892621994019 21.0569019317627 2.756082773208618 L 21.0569019317627 24.81297302246094 C 21.0569019317627 25.2751522064209 20.86899185180664 25.7287425994873 20.54136276245117 26.05742263793945 C 20.21493339538574 26.38280296325684 19.76134300231934 26.57071304321289 19.29916191101074 26.57071304321289 Z M 46.87153244018555 18.29916191101074 L 30.32844352722168 18.29916191101074 C 29.86626243591309 18.29916191101074 29.41267204284668 18.11125183105469 29.08398246765137 17.78362274169922 C 28.75820350646973 17.45784187316895 28.57071304321289 17.00467300415039 28.57071304321289 16.54143333435059 L 28.57071304321289 2.756082773208618 C 28.57071304321289 2.293892621994019 28.75862312316895 1.840302705764771 29.08624267578125 1.511632680892944 C 29.41643333435059 1.182502746582031 29.8583927154541 1.00000274181366 30.32844352722168 1.00000274181366 L 46.87153244018555 1.00000274181366 C 47.33477401733398 1.00000274181366 47.78733444213867 1.186892747879028 48.11319351196289 1.512752771377563 C 48.44492340087891 1.844472765922546 48.62760162353516 2.286022663116455 48.62760162353516 2.756082773208618 L 48.62760162353516 16.54143333435059 C 48.62760162353516 17.00571250915527 48.44052124023438 17.45847320556641 48.11433410644531 17.78362274169922 C 47.78628158569336 18.11167335510254 47.33371353149414 18.29916191101074 46.87153244018555 18.29916191101074 Z" stroke="none"/>
      <path d="M 46.87153244018555 47.62760162353516 C 47.0738525390625 47.62760162353516 47.26289367675781 47.54974365234375 47.40382385253906 47.40836334228516 L 47.40836334228516 47.40382385253906 C 47.54974365234375 47.26289367675781 47.62760162353516 47.0738525390625 47.62760162353516 46.87153244018555 L 47.62760162353516 27.57071304321289 C 47.62760162353516 27.36777305603027 47.54894256591797 27.17734336853027 47.40607452392578 27.03448295593262 C 47.26530456542969 26.89371299743652 47.07047271728516 26.81297302246094 46.87153244018555 26.81297302246094 L 30.32844352722168 26.81297302246094 C 30.12996292114258 26.81297302246094 29.93471527099609 26.89367294311523 29.79223823547363 27.03449630737305 C 29.65140724182129 27.17697525024414 29.57071304321289 27.3722095489502 29.57071304321289 27.57071304321289 L 29.57071304321289 46.87153244018555 C 29.57071304321289 47.07047271728516 29.65145301818848 47.26531219482422 29.79222297668457 47.40609359741211 C 29.93507194519043 47.54893112182617 30.12550354003906 47.62760162353516 30.32844352722168 47.62760162353516 L 46.87153244018555 47.62760162353516 M 19.29916191101074 47.62760162353516 C 19.50210189819336 47.62760162353516 19.69253349304199 47.54893112182617 19.83539199829102 47.40607452392578 C 19.97616195678711 47.26530456542969 20.0569019317627 47.07047271728516 20.0569019317627 46.87153244018555 L 20.0569019317627 35.84224319458008 C 20.0569019317627 35.64377212524414 19.97620391845703 35.44852447509766 19.83537864685059 35.30604934692383 C 19.69289970397949 35.16521835327148 19.49766540527344 35.08452224731445 19.29916191101074 35.08452224731445 L 2.756082773208618 35.08452224731445 C 2.557132720947266 35.08452224731445 2.362292766571045 35.16525268554688 2.221512794494629 35.30603408813477 C 2.078672647476196 35.44888305664062 2.00000262260437 35.63931274414062 2.00000262260437 35.84224319458008 L 2.00000262260437 46.87153244018555 C 2.00000262260437 47.0738525390625 2.077862739562988 47.26289367675781 2.219242811203003 47.40382385253906 L 2.223782777786255 47.40836334228516 C 2.364712715148926 47.54974365234375 2.553752660751343 47.62760162353516 2.756082773208618 47.62760162353516 L 19.29916191101074 47.62760162353516 M 19.29916191101074 25.57071304321289 C 19.49764251708984 25.57071304321289 19.69289779663086 25.4900074005127 19.83537483215332 25.34918403625488 C 19.97619819641113 25.20670509338379 20.0569019317627 25.01145362854004 20.0569019317627 24.81297302246094 L 20.0569019317627 2.756082773208618 C 20.0569019317627 2.557590007781982 19.97618865966797 2.362336874008179 19.83536911010742 2.21986722946167 C 19.69192886352539 2.078051567077637 19.50164413452148 2.00000262260437 19.29916191101074 2.00000262260437 L 2.756082773208618 2.00000262260437 C 2.556082725524902 2.00000262260437 2.361242771148682 2.080132722854614 2.221502780914307 2.219882726669312 C 2.078662633895874 2.362712621688843 2.00000262260437 2.553142786026001 2.00000262260437 2.756082773208618 L 2.00000262260437 24.81297302246094 C 2.00000262260437 25.01591300964355 2.078672647476196 25.20634269714355 2.221532821655273 25.34920310974121 C 2.362302780151367 25.4899730682373 2.557132720947266 25.57071304321289 2.756082773208618 25.57071304321289 L 19.29916191101074 25.57071304321289 M 46.87153244018555 17.29916191101074 C 47.07047271728516 17.29916191101074 47.26531219482422 17.21842193603516 47.40836334228516 17.07538223266602 C 47.54769134521484 16.93649291992188 47.62760162353516 16.74188232421875 47.62760162353516 16.54143333435059 L 47.62760162353516 2.756082773208618 C 47.62760162353516 2.553142786026001 47.54894256591797 2.362712621688843 47.40607452392578 2.219852685928345 C 47.26636123657227 2.080132722854614 47.0715217590332 2.00000262260437 46.87153244018555 2.00000262260437 L 30.32844352722168 2.00000262260437 C 30.12597274780273 2.00000262260437 29.93568420410156 2.078058242797852 29.79224586486816 2.219857215881348 C 29.65141677856445 2.3623366355896 29.57071304321289 2.557580232620239 29.57071304321289 2.756082773208618 L 29.57071304321289 16.54143333435059 C 29.57071304321289 16.74143218994141 29.65145301818848 16.9368724822998 29.78995323181152 17.07538223266602 C 29.93263244628906 17.21759223937988 30.12890243530273 17.29916191101074 30.32844352722168 17.29916191101074 L 46.87153244018555 17.29916191101074 M 46.87153244018555 49.62760162353516 L 30.32844352722168 49.62760162353516 C 29.59723281860352 49.62760162353516 28.89581298828125 49.33810424804688 28.37801361083984 48.8203010559082 C 27.86187362670898 48.30416107177734 27.57071304321289 47.60273361206055 27.57071304321289 46.87153244018555 L 27.57071304321289 27.57071304321289 C 27.57071304321289 26.83950233459473 27.86187362670898 26.1380729675293 28.37801361083984 25.62028312683105 C 28.89581298828125 25.10413360595703 29.59723281860352 24.81297302246094 30.32844352722168 24.81297302246094 L 46.87153244018555 24.81297302246094 C 47.60273361206055 24.81297302246094 48.30416107177734 25.10413360595703 48.8203010559082 25.62028312683105 C 49.33810424804688 26.1380729675293 49.62760162353516 26.83950233459473 49.62760162353516 27.57071304321289 L 49.62760162353516 46.87153244018555 C 49.62760162353516 47.60273361206055 49.33810424804688 48.30416107177734 48.8203010559082 48.8203010559082 C 48.30416107177734 49.33810424804688 47.60273361206055 49.62760162353516 46.87153244018555 49.62760162353516 Z M 19.29916191101074 49.62760162353516 L 2.756082773208618 49.62760162353516 C 2.024872779846191 49.62760162353516 1.323442697525024 49.33810424804688 0.807302713394165 48.8203010559082 C 0.2895027101039886 48.30416107177734 2.719116309890524e-06 47.60273361206055 2.719116309890524e-06 46.87153244018555 L 2.719116309890524e-06 35.84224319458008 C 2.719116309890524e-06 35.11105346679688 0.2895027101039886 34.40962219238281 0.807302713394165 33.89182281494141 C 1.323442697525024 33.37567138671875 2.024872779846191 33.08452224731445 2.756082773208618 33.08452224731445 L 19.29916191101074 33.08452224731445 C 20.03037261962891 33.08452224731445 20.73179244995117 33.37567138671875 21.24959182739258 33.89182281494141 C 21.76574325561523 34.40962219238281 22.0569019317627 35.11105346679688 22.0569019317627 35.84224319458008 L 22.0569019317627 46.87153244018555 C 22.0569019317627 47.60273361206055 21.76574325561523 48.30416107177734 21.24959182739258 48.8203010559082 C 20.73179244995117 49.33810424804688 20.03037261962891 49.62760162353516 19.29916191101074 49.62760162353516 Z M 19.29916191101074 27.57071304321289 L 2.756082773208618 27.57071304321289 C 2.024872779846191 27.57071304321289 1.323442697525024 27.2795524597168 0.807302713394165 26.76340293884277 C 0.2895027101039886 26.24560356140137 2.719116309890524e-06 25.54418182373047 2.719116309890524e-06 24.81297302246094 L 2.719116309890524e-06 2.756082773208618 C 2.719116309890524e-06 2.024872779846191 0.2895027101039886 1.323442697525024 0.807302713394165 0.8056527376174927 C 1.323442697525024 0.2895027101039886 2.024872779846191 2.719116309890524e-06 2.756082773208618 2.719116309890524e-06 L 19.29916191101074 2.719116309890524e-06 C 20.03037261962891 2.719116309890524e-06 20.73179244995117 0.2895027101039886 21.24959182739258 0.8056527376174927 C 21.76574325561523 1.323442697525024 22.0569019317627 2.024872779846191 22.0569019317627 2.756082773208618 L 22.0569019317627 24.81297302246094 C 22.0569019317627 25.54418182373047 21.76574325561523 26.24560356140137 21.24959182739258 26.76340293884277 C 20.73179244995117 27.2795524597168 20.03037261962891 27.57071304321289 19.29916191101074 27.57071304321289 Z M 46.87153244018555 19.29916191101074 L 30.32844352722168 19.29916191101074 C 29.59723281860352 19.29916191101074 28.89581298828125 19.00800323486328 28.37801361083984 18.49186325073242 C 27.86187362670898 17.97572326660156 27.57071304321289 17.27263259887695 27.57071304321289 16.54143333435059 L 27.57071304321289 2.756082773208618 C 27.57071304321289 2.024872779846191 27.86187362670898 1.323442697525024 28.37801361083984 0.8056527376174927 C 28.89581298828125 0.2895027101039886 29.59723281860352 2.719116309890524e-06 30.32844352722168 2.719116309890524e-06 L 46.87153244018555 2.719116309890524e-06 C 47.60273361206055 2.719116309890524e-06 48.30416107177734 0.2895027101039886 48.8203010559082 0.8056527376174927 C 49.33810424804688 1.323442697525024 49.62760162353516 2.024872779846191 49.62760162353516 2.756082773208618 L 49.62760162353516 16.54143333435059 C 49.62760162353516 17.27263259887695 49.33810424804688 17.97572326660156 48.8203010559082 18.49186325073242 C 48.30416107177734 19.00800323486328 47.60273361206055 19.29916191101074 46.87153244018555 19.29916191101074 Z" stroke="none" fill="#fff"/>
    </g>
  </g>
</svg>
