<svg id="couple" xmlns="http://www.w3.org/2000/svg" width="34.128" height="38.486" viewBox="0 0 34.128 38.486">
  <path id="Path_836" data-name="Path 836" d="M30.967,9.888A3.844,3.844,0,0,1,30.922,2.2a3.844,3.844,0,1,1,.045,7.688Z" transform="translate(-22.557 -2.2)" fill="#59b46a"/>
  <path id="Path_837" data-name="Path 837" d="M32.913,25.99c-.54-2.428-2.2-4.136-4.721-4.091h-5.62a4.839,4.839,0,0,0-4.811,4.406L17,35.342a1.446,1.446,0,0,0,1.3,1.529h.225a1.489,1.489,0,0,0,1.3-1.394l.674-8.408c.045-.225.09-.719.54-.719.135,0,.36.045.36.584V49.819a1.708,1.708,0,0,0,3.417,0v-12.9a4.7,4.7,0,0,1,1.124,0v12.9a1.708,1.708,0,0,0,3.417,0V26.934c0-.54.225-.584.36-.584.4,0,.495.584.54.809L32.1,35.387a1.416,1.416,0,0,0,1.484,1.169,1.441,1.441,0,0,0,1.349-1.484.405.405,0,0,0-.045-.225Z" transform="translate(-16.995 -13.042)" fill="#59b46a"/>
  <path id="Path_838" data-name="Path 838" d="M67.067,11.088A3.844,3.844,0,0,1,67.022,3.4a3.844,3.844,0,1,1,.045,7.688Z" transform="translate(-42.426 -2.86)" fill="#59b46a"/>
  <path id="Path_839" data-name="Path 839" d="M54.44,41.524a.409.409,0,0,1-.36-.18.554.554,0,0,1-.09-.45c.4-1.843,1.259-5.665,1.978-8.722.45-1.843.809-3.417.944-4.136a.544.544,0,0,0-.315-.584h-.135a.438.438,0,0,0-.45.36L55.7,28.98l-2.158,7.149a1.444,1.444,0,0,1-1.349,1.034,1.912,1.912,0,0,1-.495-.09,1.411,1.411,0,0,1-.854-1.664c.45-1.708,1.034-3.462,1.574-5.215.45-1.349.854-2.653,1.214-3.822A4.43,4.43,0,0,1,57.947,23h4.631a4.479,4.479,0,0,1,4.316,3.327c.315.989.629,2.068.989,3.147.629,1.933,1.259,3.956,1.8,5.89a1.367,1.367,0,0,1-.854,1.664,1.617,1.617,0,0,1-.495.09,1.39,1.39,0,0,1-1.349-1.034l-2.158-7.149-.315-1.169a.438.438,0,0,0-.45-.36h-.135a.473.473,0,0,0-.315.584c.18.719.54,2.293.944,4.136.719,3.057,1.619,6.879,1.978,8.722a.49.49,0,0,1-.45.629Z" transform="translate(-35.6 -13.648)" fill="#59b46a"/>
  <path id="Path_840" data-name="Path 840" d="M64.608,73.6A1.708,1.708,0,0,1,62.9,71.891V62h3.417v9.891A1.653,1.653,0,0,1,64.608,73.6Z" transform="translate(-42.261 -35.114)" fill="#59b46a"/>
  <path id="Path_841" data-name="Path 841" d="M74.708,73.6A1.708,1.708,0,0,1,73,71.891V62h3.417v9.891A1.708,1.708,0,0,1,74.708,73.6Z" transform="translate(-47.82 -35.114)" fill="#59b46a"/>
</svg>
