<svg id="improvement" xmlns="http://www.w3.org/2000/svg" width="40.682" height="37.334" viewBox="0 0 40.682 37.334">
  <path id="Path_174" data-name="Path 174" d="M37.063,35.3a.954.954,0,0,1-.233-.887,6.415,6.415,0,0,0-7.9-7.514.746.746,0,0,0-.509.552.733.733,0,0,0,.225.683L31.1,30.593a.338.338,0,0,1,.1.291l-.218,2.325a.364.364,0,0,1-.327.32l-2.318.225a.378.378,0,0,1-.291-.1l-2.485-2.485a.735.735,0,0,0-1.025,0c-.993,2.107-.1,4.857,1.482,6.467a6.394,6.394,0,0,0,5.85,1.737.945.945,0,0,1,.879.233l8.72,8.72a3.044,3.044,0,1,0,4.309-4.3Z" transform="translate(-9.5 -11.883)" fill="#8ed0de"/>
  <path id="Path_175" data-name="Path 175" d="M44.432,21.847c-4.075-3.379-13.588-11.245-17.76-14.7a3.639,3.639,0,0,0-4.636,0c-11.075,9.163-17.774,14.7-17.774,14.7a.728.728,0,1,0,.93,1.119l5.486-4.542V38.691A2.906,2.906,0,0,0,13.584,41.6H32.761l-6.329-6.329a7.859,7.859,0,0,1-9.018-9.57,2.2,2.2,0,0,1,3.03-1.577c.6.224,2.267,2.134,2.769,2.565l.908-.087.087-.908-2.035-2.042a2.183,2.183,0,0,1,1.046-3.757A7.911,7.911,0,0,1,32.8,28.91l5.218,5.217v-15.7L43.5,22.966a.728.728,0,0,0,.93-1.119Z" transform="translate(-3.999 -6.313)" fill="#8ed0de"/>
</svg>
