<svg id="Line" xmlns="http://www.w3.org/2000/svg" width="54.719" height="37.335" viewBox="0 0 54.719 37.335">
  <path id="Path_169" data-name="Path 169" d="M40.482,30.959a7.41,7.41,0,0,1,2.7,8.552h.435a3.735,3.735,0,0,0,3.731-3.731V29.674a5,5,0,0,0-.995-2.983A14.99,14.99,0,0,1,40.482,30.959Z" transform="translate(7.375 -4.629)" fill="#8ed0de"/>
  <path id="Path_170" data-name="Path 170" d="M5.731,41.385h.435a7.462,7.462,0,1,1,14.053,0H38.5a7.4,7.4,0,0,1,1.984-7.97A14.938,14.938,0,0,1,29.36,19H25.977a5.058,5.058,0,0,0-3.6,1.49l-5.487,5.487a2.6,2.6,0,0,1-1.373.72L6.176,28.4A5.084,5.084,0,0,0,2,33.4v4.254A3.735,3.735,0,0,0,5.731,41.385Z" transform="translate(-2 -6.503)" fill="#8ed0de"/>
  <path id="Path_171" data-name="Path 171" d="M38.309,8.951A12.436,12.436,0,1,0,50.745,21.387,12.45,12.45,0,0,0,38.309,8.951Z" transform="translate(3.816 -8.951)" fill="#8ed0de"/>
  <path id="Path_172" data-name="Path 172" d="M11.984,31.028a4.94,4.94,0,1,0,4.94,4.94A4.939,4.939,0,0,0,11.984,31.028Zm0,6.175a1.235,1.235,0,1,1,1.235-1.235A1.236,1.236,0,0,1,11.984,37.2Z" transform="translate(-0.771 -3.573)" fill="#8ed0de"/>
  <path id="Path_173" data-name="Path 173" d="M37.97,31.028a4.94,4.94,0,1,0,4.94,4.94A4.939,4.939,0,0,0,37.97,31.028Zm0,6.175A1.235,1.235,0,1,1,39.2,35.968,1.236,1.236,0,0,1,37.97,37.2Z" transform="translate(5.559 -3.573)" fill="#8ed0de"/>
  <path id="Icon_awesome-rupee-sign" data-name="Icon awesome-rupee-sign" d="M9.1,4.141a.355.355,0,0,0,.355-.355V2.6A.355.355,0,0,0,9.1,2.25H.355A.355.355,0,0,0,0,2.6V3.927a.355.355,0,0,0,.355.355h2.52a2.132,2.132,0,0,1,1.8.805H.355A.355.355,0,0,0,0,5.442V6.624a.355.355,0,0,0,.355.355H5.046A2.042,2.042,0,0,1,2.837,8.711H.355A.355.355,0,0,0,0,9.065v1.567a.355.355,0,0,0,.114.261l4.878,4.5a.355.355,0,0,0,.241.094h2.44a.355.355,0,0,0,.241-.615L3.454,10.758a4.048,4.048,0,0,0,4.087-3.78H9.1a.355.355,0,0,0,.355-.355V5.442A.355.355,0,0,0,9.1,5.087H7.367a4.048,4.048,0,0,0-.421-.946Z" transform="translate(37.397 4.538)" fill="#fff"/>
</svg>
