<svg id="man" xmlns="http://www.w3.org/2000/svg" width="15.758" height="38.486" viewBox="0 0 15.758 38.486">
  <path id="Path_833" data-name="Path 833" d="M164.829,123.191h-9.062a3.082,3.082,0,0,0-3.078,3.078v11.181a1.084,1.084,0,1,0,2.168,0v-9.157a.6.6,0,1,1,1.2,0V150.2a1.817,1.817,0,0,0,3.632,0V137.69a.6.6,0,0,1,1.2,0V150.2a1.817,1.817,0,0,0,3.632,0V128.293a.6.6,0,0,1,1.2,0v9.156a1.084,1.084,0,0,0,2.168,0v-11.18A3.081,3.081,0,0,0,164.829,123.191Z" transform="translate(-152.419 -113.805)" fill="#59b46a"/>
  <path id="Path_834" data-name="Path 834" d="M159.448,149.01a2.09,2.09,0,0,1-2.087-2.088V134.41a.331.331,0,1,0-.663,0v12.513a2.087,2.087,0,0,1-4.174,0V125.012a.331.331,0,0,0-.662,0v9.156a1.355,1.355,0,1,1-2.71,0v-11.18a3.353,3.353,0,0,1,3.349-3.349h9.061a3.353,3.353,0,0,1,3.349,3.349v11.18a1.355,1.355,0,1,1-2.71,0v-9.157a.331.331,0,1,0-.662,0v21.911A2.09,2.09,0,0,1,159.448,149.01Zm-2.419-15.474a.874.874,0,0,1,.873.873v12.513a1.545,1.545,0,0,0,3.09,0V125.012a.873.873,0,1,1,1.747,0v9.156a.813.813,0,0,0,1.626,0v-11.18a2.81,2.81,0,0,0-2.807-2.807H152.5a2.81,2.81,0,0,0-2.807,2.807v11.18a.813.813,0,1,0,1.626,0v-9.157a.873.873,0,1,1,1.747,0v21.911a1.545,1.545,0,0,0,3.09,0V134.41A.874.874,0,0,1,157.029,133.536Z" transform="translate(-149.151 -110.525)" fill="#59b46a"/>
  <ellipse id="Ellipse_20" data-name="Ellipse 20" cx="3.532" cy="3.532" rx="3.532" ry="3.532" transform="translate(4.347 0.271)" fill="#59b46a"/>
  <path id="Path_835" data-name="Path 835" d="M206.45,7.6a3.8,3.8,0,1,1,3.8-3.8A3.8,3.8,0,0,1,206.45,7.6Zm0-7.064A3.261,3.261,0,1,0,209.71,3.8,3.261,3.261,0,0,0,206.45.541Z" transform="translate(-198.571 0.001)" fill="#59b46a"/>
</svg>
