<svg id="mortgage-loan" xmlns="http://www.w3.org/2000/svg" width="37.334" height="37.335" viewBox="0 0 37.334 37.335">
  <path id="Path_182" data-name="Path 182" d="M.455,16.646a2.187,2.187,0,0,0,3.068.4l15.145-12.1,15.145,12.1A2.188,2.188,0,0,0,36.48,13.58L20,.453a2.191,2.191,0,0,0-2.668,0L.856,13.579a2.183,2.183,0,0,0-.4,3.067Z" transform="translate(0 0)" fill="#8ed0de"/>
  <path id="Path_183" data-name="Path 183" d="M395.281,30h-2.187A1.094,1.094,0,0,0,392,31.094v1.18l4.375,3.5V31.094A1.094,1.094,0,0,0,395.281,30Z" transform="translate(-363.416 -27.812)" fill="#8ed0de"/>
  <path id="Path_184" data-name="Path 184" d="M88.584,130.345V117.592a4.252,4.252,0,0,1-.482-.257L74.292,106.3l-13.776,11a4.413,4.413,0,0,1-.516.279v12.76a1.094,1.094,0,0,0,1.094,1.094h3.188a10.85,10.85,0,0,1-.927-4.375,10.974,10.974,0,1,1,21.949,0,10.85,10.85,0,0,1-.927,4.375H87.49A1.094,1.094,0,0,0,88.584,130.345Z" transform="translate(-55.625 -98.552)" fill="#8ed0de"/>
  <path id="Path_185" data-name="Path 185" d="M153.574,278.823a8.787,8.787,0,1,0-8.823,8.823A8.875,8.875,0,0,0,153.574,278.823Z" transform="translate(-126.083 -250.312)" fill="#8ed0de"/>
  <path id="Icon_awesome-rupee-sign" data-name="Icon awesome-rupee-sign" d="M7.125,3.731A.278.278,0,0,0,7.4,3.453V2.528a.278.278,0,0,0-.278-.278H.278A.278.278,0,0,0,0,2.528V3.563a.278.278,0,0,0,.278.278H2.25a1.669,1.669,0,0,1,1.41.63H.278A.278.278,0,0,0,0,4.748v.925a.278.278,0,0,0,.278.278H3.95A1.6,1.6,0,0,1,2.221,7.308H.278A.278.278,0,0,0,0,7.585V8.812a.278.278,0,0,0,.089.2L3.908,12.54a.278.278,0,0,0,.188.074h1.91a.278.278,0,0,0,.188-.482L2.7,8.91A3.169,3.169,0,0,0,5.9,5.951H7.125A.278.278,0,0,0,7.4,5.674V4.748a.278.278,0,0,0-.278-.278H5.768a3.169,3.169,0,0,0-.33-.74Z" transform="translate(14.966 21.542)" fill="#fff"/>
</svg>
