<svg id="employee" xmlns="http://www.w3.org/2000/svg" width="44.46" height="45.529" viewBox="0 0 44.46 45.529">
  <g id="Group_135" data-name="Group 135" transform="translate(0 0)">
    <path id="Path_818" data-name="Path 818" d="M25.573,5.914a6.147,6.147,0,0,0,2-.285c.641-.214,1.283-.428,2-.713a12.145,12.145,0,0,1,4.061-1,6.191,6.191,0,0,1,3.278.926l.356.214L37.115,4.7A7.847,7.847,0,0,0,35.69,2.494,8.27,8.27,0,0,0,29.563,0H27.71a8.377,8.377,0,0,0-6.128,2.423,6.4,6.4,0,0,0-1.211,1.853l-.071.143.143.071a11.073,11.073,0,0,0,5.13,1.425Z" transform="translate(-6.406 0)" fill="#5ab56b"/>
    <path id="Path_819" data-name="Path 819" d="M19.353,19.883c.214.071.428.214.428.428,1.211,5.059,4.418,8.408,7.909,8.408s6.626-3.349,7.838-8.408a.533.533,0,0,1,.5-.428c.713-.143,1.853-1.853,2.209-3.776a3.217,3.217,0,0,0-.214-2.28,1.418,1.418,0,0,0-.855-.57h-.142a.542.542,0,0,1-.428-.57l.071-2.494A5.783,5.783,0,0,0,36.6,8.981V8.91l-.071-.071A6.429,6.429,0,0,0,32.535,7.2a9.451,9.451,0,0,0-3.634.926,17.592,17.592,0,0,1-2.066.713,8.509,8.509,0,0,1-2.351.285A11.8,11.8,0,0,1,19,7.628l-.143-.071V7.77a6.454,6.454,0,0,0-.214,2.351l.071,2.565a.543.543,0,0,1-.5.57h-.071c-1.354.285-1.211,2.066-1,2.85.356,1.924,1.5,3.705,2.209,3.776Z" transform="translate(-5.46 -2.07)" fill="#5ab56b"/>
    <path id="Path_820" data-name="Path 820" d="M38.42,42.708A36.033,36.033,0,0,1,32.008,40a49.684,49.684,0,0,1-8.621,6.341.642.642,0,0,1-.356.071.534.534,0,0,1-.356-.071C22.46,46.2,16.9,42.921,14.053,40A36.033,36.033,0,0,1,7.64,42.708C1.869,44.489.943,51.97.8,54.036a84.066,84.066,0,0,0,44.46,0C45.118,51.97,44.263,44.489,38.42,42.708Z" transform="translate(-0.8 -11.5)" fill="#5ab56b"/>
    <path id="Path_821" data-name="Path 821" d="M28.953,38.581a7.292,7.292,0,0,1-4.7-1.781c-.784.5-1.781,1.069-2.85,1.639A50.321,50.321,0,0,0,29.024,44a54.162,54.162,0,0,0,7.624-5.558c-1.069-.57-2.066-1.14-2.85-1.639A8.136,8.136,0,0,1,28.953,38.581Z" transform="translate(-6.722 -10.58)" fill="#5ab56b"/>
  </g>
</svg>
