<svg xmlns="http://www.w3.org/2000/svg" width="45.529" height="45.529" viewBox="0 0 45.529 45.529">
  <g id="self-employed_1_" data-name="self-employed (1)" transform="translate(0)">
    <path id="Path_187" data-name="Path 187" d="M50.382,37.065v-.813A3.252,3.252,0,0,0,47.13,33H42.252A3.252,3.252,0,0,0,39,36.252v.813h1.626v-.813a1.626,1.626,0,0,1,1.626-1.626H47.13a1.626,1.626,0,0,1,1.626,1.626v.813Z" transform="translate(-8.918 -7.796)" fill="#5ab56b"/>
    <path id="Path_188" data-name="Path 188" d="M27.656,29.713a5.3,5.3,0,0,0,2.25-3.513l.432-2.578a.813.813,0,0,1,.8-.679,1.626,1.626,0,0,0,0-3.252.813.813,0,0,1-.813-.813,2.263,2.263,0,0,0-1.594-2.371,18.519,18.519,0,0,1-7.08-2.426.483.483,0,0,0-.537,0,18.514,18.514,0,0,1-7.081,2.426,2.263,2.263,0,0,0-1.594,2.371.813.813,0,0,1-.813.813,1.626,1.626,0,0,0,0,3.252.813.813,0,0,1,.8.679l.432,2.577a5.3,5.3,0,0,0,2.25,3.514c.237.163.488.338.757.527,1.554,1.1,3.489,2.459,5.516,2.459s3.962-1.364,5.516-2.459C27.165,30.051,27.419,29.873,27.656,29.713Z" transform="translate(-3.496 -4.244)" fill="#5ab56b"/>
    <path id="Path_189" data-name="Path 189" d="M20,38.013a3.252,3.252,0,0,0,6.5,0,7.747,7.747,0,0,1-3.252.8A7.746,7.746,0,0,1,20,38.013Z" transform="translate(-5.366 -8.734)" fill="#5ab56b"/>
    <rect id="Rectangle_74" data-name="Rectangle 74" width="19.512" height="6.097" rx="1" transform="translate(26.017 29.268)" fill="#5ab56b"/>
    <path id="Path_190" data-name="Path 190" d="M46.439,50.626a.813.813,0,0,0,.813-.813V49H44v.813a.813.813,0,0,0,.813.813Z" transform="translate(-9.853 -10.788)" fill="#5ab56b"/>
    <path id="Path_191" data-name="Path 191" d="M2.813,54.509H26.54a2.411,2.411,0,0,1-.15-.813V40.688a2.4,2.4,0,0,1,.128-.741l-1.879-.617a4.873,4.873,0,0,1-9.506,0L8.05,41.655C4.149,42.938,2,46.925,2,52.883V53.7a.813.813,0,0,0,.813.813Z" transform="translate(-2 -8.98)" fill="#5ab56b"/>
    <path id="Path_192" data-name="Path 192" d="M10,13.382v2.885a3.222,3.222,0,0,1,.868-.358A3.708,3.708,0,0,1,13.8,12.654a16.884,16.884,0,0,0,6.444-2.2,2.114,2.114,0,0,1,2.27,0,16.9,16.9,0,0,0,6.443,2.2A3.708,3.708,0,0,1,31.9,15.91a3.222,3.222,0,0,1,.868.358V13.382a11.382,11.382,0,1,0-22.765,0Z" transform="translate(-3.496 -2)" fill="#5ab56b"/>
    <path id="Path_193" data-name="Path 193" d="M53.512,48.816a2.412,2.412,0,0,1-.813.15H47.008v.813a2.439,2.439,0,0,1-2.439,2.439H42.943A2.439,2.439,0,0,1,40.5,49.779v-.813H34.813a2.412,2.412,0,0,1-.813-.15V55.47a.813.813,0,0,0,.813.813H52.7a.813.813,0,0,0,.813-.813Z" transform="translate(-7.983 -10.754)" fill="#5ab56b"/>
  </g>
</svg>
