<svg id="businessman" xmlns="http://www.w3.org/2000/svg" width="41.638" height="45.53" viewBox="0 0 41.638 45.53">
  <g id="Group_128" data-name="Group 128" transform="translate(8.335 0)">
    <g id="Group_127" data-name="Group 127" transform="translate(0 0)">
      <path id="Path_806" data-name="Path 806" d="M127.921,11.811a7.825,7.825,0,0,0,.317-1.173c1.229-7.364-2.4-7.625-2.4-7.625A5.619,5.619,0,0,0,123.648.983a7.347,7.347,0,0,0-4.487-.95,6.215,6.215,0,0,0-1.787.344,7.982,7.982,0,0,0-1.964,1.005,10.453,10.453,0,0,0-2.02,1.676A8.171,8.171,0,0,0,111.2,6.9a8.332,8.332,0,0,0,.019,3.742,7.831,7.831,0,0,0,.317,1.173c-.726-.065-1.583.354-.773,3.193.568,2.085,1.117,2.663,1.536,2.7a8.822,8.822,0,0,0,5.428,6.722,5.888,5.888,0,0,0,3.975-.009,8.947,8.947,0,0,0,5.437-6.712c.419-.037.959-.614,1.555-2.7C129.494,12.155,128.647,11.736,127.921,11.811Z" transform="translate(-110.435 0)" fill="#5ab56b"/>
    </g>
  </g>
  <g id="Group_130" data-name="Group 130" transform="translate(27.432 31.323)">
    <g id="Group_129" data-name="Group 129">
      <path id="Path_807" data-name="Path 807" d="M322.662,336.46a7.1,7.1,0,1,0,7.1,7.1A7.1,7.1,0,0,0,322.662,336.46Zm.456,8.667-1.368,1.359-1.359-1.368-1.313-1.313,1.369-1.369,1.313,1.313,3.128-3.109,1.359,1.369Z" transform="translate(-315.559 -336.46)" fill="#5ab56b"/>
    </g>
  </g>
  <g id="Group_132" data-name="Group 132" transform="translate(0 23.726)">
    <g id="Group_131" data-name="Group 131" transform="translate(0)">
      <path id="Path_808" data-name="Path 808" d="M54.97,259.952a3.884,3.884,0,0,0-2.206-1.443,27.57,27.57,0,0,1-8.006-3.649l-2.8,8.853-.531,1.666-.009-.019-.456,1.415-1.471-4.189c3.631-5.064-.735-5.008-.978-5.008s-4.608-.056-.978,5.008l-1.48,4.189-.456-1.415-.009.019-.531-1.666-2.8-8.853a27.423,27.423,0,0,1-8.006,3.649c-3.3.838-3.454,4.636-3.314,6.517.019,0,.2,2.551.4,3.668,0,0,6.424,4.18,17.186,4.18a39.456,39.456,0,0,0,7.653-.735,9.426,9.426,0,0,1-.354-2.579A9.632,9.632,0,0,1,54.97,259.952Z" transform="translate(-20.901 -254.86)" fill="#5ab56b"/>
    </g>
  </g>
</svg>
