<svg xmlns="http://www.w3.org/2000/svg" width="37.391" height="45.529" viewBox="0 0 37.391 45.529">
  <g id="Group_161" data-name="Group 161" transform="translate(0 0)">
    <path id="Path_809" data-name="Path 809" d="M40.017,56H14v1.626H40.017Z" transform="translate(-8.312 -12.097)" fill="#5ab56b"/>
    <path id="Path_810" data-name="Path 810" d="M27.943,2A8.954,8.954,0,0,0,19,10.943V13.3a2.642,2.642,0,0,1,.393-.146,3.589,3.589,0,0,1,3.2-2.911,9.546,9.546,0,0,0,4.455-1.789,1.582,1.582,0,0,1,1.793,0,9.838,9.838,0,0,0,4.478,1.789,3.607,3.607,0,0,1,3.171,2.909,2.674,2.674,0,0,1,.4.146V10.943A8.954,8.954,0,0,0,27.943,2Z" transform="translate(-9.247 -2)" fill="#5ab56b"/>
    <path id="Path_811" data-name="Path 811" d="M48.649,43l-2.358,8.963a1.626,1.626,0,0,1,1.389,1.6V55.2h1.56a2.5,2.5,0,0,0,2.375-3.287Z" transform="translate(-14.35 -9.667)" fill="#5ab56b"/>
    <path id="Path_812" data-name="Path 812" d="M34.727,33a4.028,4.028,0,0,1-.752,1.626h7.236A11.525,11.525,0,0,0,35.316,33Z" transform="translate(-12.048 -7.796)" fill="#5ab56b"/>
    <path id="Path_813" data-name="Path 813" d="M40.685,37H12.434a.833.833,0,0,0-.806,1.044l3.363,12.777H38.128l3.363-12.777A.833.833,0,0,0,40.685,37ZM26.56,48.382c-2.241,0-4.065-1.459-4.065-3.252s1.824-3.252,4.065-3.252,4.065,1.459,4.065,3.252S28.8,48.382,26.56,48.382Z" transform="translate(-7.864 -8.544)" fill="#5ab56b"/>
    <path id="Path_814" data-name="Path 814" d="M17.129,34.626h7.236A4.028,4.028,0,0,1,23.613,33h-.589a11.525,11.525,0,0,0-5.9,1.626Z" transform="translate(-8.898 -7.796)" fill="#5ab56b"/>
    <path id="Path_815" data-name="Path 815" d="M10.1,43l-2.967,8.9A2.5,2.5,0,0,0,9.506,55.2h1.56V53.57a1.626,1.626,0,0,1,1.391-1.6Z" transform="translate(-7.004 -9.667)" fill="#5ab56b"/>
    <path id="Path_816" data-name="Path 816" d="M27,31.272v.592a2.439,2.439,0,1,0,4.878,0v-.592a6.781,6.781,0,0,1-2.439.592A6.781,6.781,0,0,1,27,31.272Z" transform="translate(-10.743 -7.473)" fill="#5ab56b"/>
    <ellipse id="Ellipse_16" data-name="Ellipse 16" cx="3.114" cy="1.557" rx="3.114" ry="1.557" transform="translate(15.589 35.222)" fill="#5ab56b"/>
    <path id="Path_817" data-name="Path 817" d="M34.17,22.759a9.713,9.713,0,0,0,.766-3.235.813.813,0,0,1,.813-.772,1.138,1.138,0,0,0,0-2.276.813.813,0,0,1-.813-.813,1.986,1.986,0,0,0-1.759-2,11.332,11.332,0,0,1-5.26-2.072,10.976,10.976,0,0,1-5.176,2.07,2.007,2.007,0,0,0-1.789,2,.813.813,0,0,1-.813.813,1.138,1.138,0,0,0,0,2.276.813.813,0,0,1,.813.772,9.7,9.7,0,0,0,.767,3.235c.79,1.562,4.457,3.8,6.225,3.8S33.378,24.321,34.17,22.759Z" transform="translate(-9.247 -3.793)" fill="#5ab56b"/>
  </g>
</svg>
