<svg id="wedding-rings" xmlns="http://www.w3.org/2000/svg" width="37.336" height="37.335" viewBox="0 0 37.336 37.335">
  <path id="Path_194" data-name="Path 194" d="M12.105,205.124a12.1,12.1,0,0,0,12.032-12.105,11.98,11.98,0,0,0-1.094-5.01,5.45,5.45,0,0,0-3.282,5.01,7.747,7.747,0,0,1-7.657,7.73,7.693,7.693,0,0,1,0-15.387,6.4,6.4,0,0,1,1.116.087,13.674,13.674,0,0,1,3.282-3.631,12.074,12.074,0,1,0-4.4,23.306Z" transform="translate(0 -167.79)" fill="#8ed0de"/>
  <path id="Path_195" data-name="Path 195" d="M173.021,1.219a4.13,4.13,0,0,0-5.775-.058,4.125,4.125,0,0,0-5.775,5.891l5.775,5.848,5.775-5.848a4.129,4.129,0,0,0,0-5.833Z" transform="translate(-148.578 -0.013)" fill="#8ed0de"/>
  <path id="Path_196" data-name="Path 196" d="M193.032,200.749a6.41,6.41,0,0,1-1.116-.087,13.675,13.675,0,0,1-3.282,3.632,12.074,12.074,0,1,0,4.4-23.306A12.04,12.04,0,0,0,181,193.019a12.318,12.318,0,0,0,1.094,5.083,5.554,5.554,0,0,0,3.282-5.083,7.657,7.657,0,1,1,7.657,7.73Z" transform="translate(-167.801 -167.79)" fill="#8ed0de"/>
</svg>
