<svg id="loan_1_" data-name="loan (1)" xmlns="http://www.w3.org/2000/svg" width="38.709" height="37.335" viewBox="0 0 38.709 37.335">
  <path id="Path_176" data-name="Path 176" d="M38.646,46.155v5.981a29.021,29.021,0,0,0-4.826.2l-9.093,1.616a13.807,13.807,0,0,1-6.316-.417L5.027,48.948a1.527,1.527,0,0,1,.938-2.9c1.508.35,10.223,3.34,11.611,3.158h7.515a.745.745,0,1,0,0-1.49c-.393-.021-8.1.054-8.267-.052a2.033,2.033,0,0,1,2-2.227h4.759a.722.722,0,0,0,.484-.179,7.279,7.279,0,0,1,7.567-1.586,11.031,11.031,0,0,1,3.277,1.944,2.258,2.258,0,0,0,1.46.544Z" transform="translate(-4.019 -16.807)" fill="#8ed0de"/>
  <rect id="Rectangle_73" data-name="Rectangle 73" width="2.592" height="9.749" rx="1.077" transform="translate(36.117 27.464)" fill="#8ed0de"/>
  <path id="Path_177" data-name="Path 177" d="M43.968,43.87c.119.045.238.089.35.134a.582.582,0,0,1-.35-.134Z" transform="translate(-16.348 -17.009)" fill="#8ed0de"/>
  <path id="Path_178" data-name="Path 178" d="M27.283,5.187l-.745,2.361a9.921,9.921,0,0,0-2.123,1.9H20.55L19.209,5.179c-.037-.066.074-.214.179-.141a9.855,9.855,0,0,0,3.97,1.072A10.324,10.324,0,0,0,27.1,5.038C27.2,4.966,27.327,5.11,27.283,5.187Z" transform="translate(-8.705 -5.018)" fill="#8ed0de"/>
  <path id="Path_179" data-name="Path 179" d="M23.133,13.578a9.194,9.194,0,0,0-.909,2.182H19.469a1.091,1.091,0,1,1,0-2.182Z" transform="translate(-8.45 -7.66)" fill="#8ed0de"/>
  <path id="Path_180" data-name="Path 180" d="M33.973,8.44a8.451,8.451,0,0,0-8.416,8.408c.457,11.117,16.332,11.2,16.824,0A8.418,8.418,0,0,0,33.973,8.44Z" transform="translate(-10.666 -6.074)" fill="#8ed0de"/>
  <path id="Path_181" data-name="Path 181" d="M32.193,34.4a8.628,8.628,0,0,0-8.178,1.869H19.525a3.505,3.505,0,0,0-3.493,3.351L7.1,36.937c-3.215-6.821,3.761-15.717,7.291-18.6.78.6,2.876.321,3.8.38A9.9,9.9,0,0,0,31.538,29.154a13.4,13.4,0,0,1,.655,5.243Z" transform="translate(-4.716 -9.13)" fill="#8ed0de"/>
  <path id="Icon_awesome-rupee-sign" data-name="Icon awesome-rupee-sign" d="M6.2,3.538A.241.241,0,0,0,6.438,3.3v-.8A.241.241,0,0,0,6.2,2.25H.241A.241.241,0,0,0,0,2.491v.9a.241.241,0,0,0,.241.241H1.957a1.451,1.451,0,0,1,1.227.548H.241A.241.241,0,0,0,0,4.423v.8a.241.241,0,0,0,.241.241H3.435a1.39,1.39,0,0,1-1.5,1.18H.241A.241.241,0,0,0,0,6.89V7.957a.241.241,0,0,0,.078.177L3.4,11.2a.241.241,0,0,0,.164.064H5.223a.241.241,0,0,0,.164-.419l-3.036-2.8A2.756,2.756,0,0,0,5.134,5.469H6.2a.241.241,0,0,0,.241-.241v-.8A.241.241,0,0,0,6.2,4.181H5.016a2.756,2.756,0,0,0-.287-.644Z" transform="translate(20.084 3.997)" fill="#fff"/>
</svg>
