<svg xmlns="http://www.w3.org/2000/svg" width="251.127" height="237.81" viewBox="0 0 251.127 237.81">
  <path id="Path_198" data-name="Path 198" d="M897.413,2170.206h0l51.606,73.027s0,0,0,0a15.037,15.037,0,0,1-.716,17.865l-.005.005-.005.007-29.8,42.141s0,0,0,0a7.925,7.925,0,0,1-12.673,0,0,0,0,0,0,0,0l-47.971-67.94h0a8.862,8.862,0,0,0-14.952,0h0l-47.971,67.94a0,0,0,0,0,0,0,7.926,7.926,0,0,1-12.674,0s0,0,0,0l-29.8-42.141h0v0a15,15,0,0,1,0-17.867h0v0l51.61-73.033h0a13.694,13.694,0,0,1,11.059-5.706h71.235A13.7,13.7,0,0,1,897.413,2170.206Z" transform="matrix(0.809, -0.588, 0.588, 0.809, -1876.524, -1189.675)" fill="none" stroke="#5cb46b" stroke-width="3"/>
</svg>
