<svg id="self-employed_1_" data-name="self-employed (1)" xmlns="http://www.w3.org/2000/svg" width="37.335" height="37.335" viewBox="0 0 37.335 37.335">
  <path id="Path_187" data-name="Path 187" d="M48.334,36.333v-.667A2.667,2.667,0,0,0,45.667,33h-4A2.667,2.667,0,0,0,39,35.667v.667h1.333v-.667a1.333,1.333,0,0,1,1.333-1.333h4A1.333,1.333,0,0,1,47,35.667v.667Z" transform="translate(-14.333 -12.333)" fill="#8ed0de"/>
  <path id="Path_188" data-name="Path 188" d="M24.478,26.885A4.346,4.346,0,0,0,26.323,24l.354-2.114a.667.667,0,0,1,.657-.557,1.333,1.333,0,0,0,0-2.667A.667.667,0,0,1,26.667,18a1.855,1.855,0,0,0-1.307-1.944,15.186,15.186,0,0,1-5.806-1.989.4.4,0,0,0-.441,0,15.182,15.182,0,0,1-5.807,1.989A1.855,1.855,0,0,0,12,18a.667.667,0,0,1-.667.667,1.333,1.333,0,0,0,0,2.667.667.667,0,0,1,.657.557L12.345,24a4.345,4.345,0,0,0,1.845,2.881c.194.133.4.277.621.432,1.275.9,2.861,2.017,4.523,2.017s3.249-1.119,4.523-2.017C24.076,27.162,24.284,27.016,24.478,26.885Z" transform="translate(-4.666 -6)" fill="#8ed0de"/>
  <path id="Path_189" data-name="Path 189" d="M20,38.013a2.667,2.667,0,1,0,5.333,0,6.352,6.352,0,0,1-2.667.658A6.352,6.352,0,0,1,20,38.013Z" transform="translate(-8 -14.004)" fill="#8ed0de"/>
  <rect id="Rectangle_74" data-name="Rectangle 74" width="16" height="5" rx="1" transform="translate(21.334 24)" fill="#8ed0de"/>
  <path id="Path_190" data-name="Path 190" d="M46,50.333a.667.667,0,0,0,.667-.667V49H44v.667a.667.667,0,0,0,.667.667Z" transform="translate(-15.999 -17.666)" fill="#8ed0de"/>
  <path id="Path_191" data-name="Path 191" d="M2.667,51.777H22.123A1.977,1.977,0,0,1,22,51.11V40.443a1.971,1.971,0,0,1,.1-.607l-1.541-.506a4,4,0,0,1-7.795,0L6.961,41.237C3.762,42.289,2,45.558,2,50.444v.667a.667.667,0,0,0,.667.667Z" transform="translate(-2 -14.443)" fill="#8ed0de"/>
  <path id="Path_192" data-name="Path 192" d="M10,11.334V13.7a2.642,2.642,0,0,1,.712-.293,3.041,3.041,0,0,1,2.407-2.67,13.845,13.845,0,0,0,5.284-1.8,1.733,1.733,0,0,1,1.861,0,13.855,13.855,0,0,0,5.283,1.8,3.041,3.041,0,0,1,2.407,2.67,2.642,2.642,0,0,1,.712.293V11.334a9.334,9.334,0,1,0-18.667,0Z" transform="translate(-4.666 -2)" fill="#8ed0de"/>
  <path id="Path_193" data-name="Path 193" d="M50,48.816a1.978,1.978,0,0,1-.667.123H44.667v.667a2,2,0,0,1-2,2H41.334a2,2,0,0,1-2-2v-.667H34.667A1.978,1.978,0,0,1,34,48.816v5.456a.667.667,0,0,0,.667.667H49.334A.667.667,0,0,0,50,54.272Z" transform="translate(-12.666 -17.604)" fill="#8ed0de"/>
</svg>
